<svg
        xmlns="http://www.w3.org/2000/svg"
        viewBox="0 0 1376 200"
        baseProfile="full"
        version="1.1">
    <path
            d="m 421.73633,23.999999 c -26.39243,0 -47.48265,7.83961 -63.26953,23.51953 -15.7869,15.67993 -23.67973,35.24345 -23.67969,58.691411 0,23.23219 7.327,42.00503 21.98047,56.31836 14.65347,14.31333 33.83985,21.4707 57.56054,21.4707 19.02522,0 37.52333,-4.49541 55.4961,-13.48633 l 0,-66.13672 -53.06641,0 0,9.71094 41.04492,0 0,51.03125 c -11.81992,6.0418 -25.58313,9.0625 -41.28906,9.0625 -21.2111,0 -38.09012,-6.14978 -50.63867,-18.44922 -12.4676,-12.37133 -18.70117,-29.41693 -18.70117,-51.13867 0,-20.642841 6.63884,-37.617471 19.91601,-50.923831 13.35815,-13.30636 31.00559,-19.95898 52.94532,-19.95898 15.05826,0 30.48068,3.37956 46.26757,10.14062 l 0,-11.65234 c -14.4106,-5.4664 -29.26526,-8.19922 -44.5664,-8.19922 z M 209.69727,26.589849 144,181.30273 l 13.23633,0 19.91601,-48.11914 75.53516,0 19.91406,48.11914 13.48047,0 -64.96875,-154.712881 z m 333.48437,0 0,154.712881 85.37109,0 0,-9.71093 -73.34961,0 0,-63.4375 64.36329,0 0,-9.71094 -64.36329,0 0,-62.035161 69.3418,0 0,-9.81835 z m 157.51172,0 0,154.712881 12.02344,0 0,-127.957031 c 0,-2.66126 -0.0802,-4.92679 -0.24219,-6.79687 l 0.48437,0 1.58008,2.1582 c 1.61917,2.51742 3.48103,5.03532 5.58594,7.55274 l 103.70703,125.042961 8.5,0 0,-154.712881 -12.02148,0 0,120.943351 c 0,3.59633 0.20263,7.91244 0.60742,12.94727 l -0.60742,0 c -2.67162,-3.88401 -5.14137,-7.19259 -7.40821,-9.92578 L 709.92383,26.589849 Z m 209.48829,0 0,154.712881 41.0469,0 c 28.4163,0 50.68035,-7.33674 66.79095,-22.00976 16.1918,-14.74488 24.2872,-33.91209 24.2872,-57.50391 0,-24.526821 -7.53,-43.193211 -22.5879,-55.996091 -15.0589,-12.80287 -37.03925,-19.20312 -65.94145,-19.20312 z m 245.43365,0 -65.6972,154.712881 13.2363,0 19.916,-48.11914 75.5352,0 19.914,48.11914 13.4804,0 -64.9688,-154.712881 z m -233.41015,9.81835 29.7519,0 c 51.89425,0 77.84185,21.93748 77.84185,65.812501 0,22.441 -6.9218,39.63056 -20.7657,51.57032 -13.84385,11.86783 -33.68015,17.80078 -59.50585,17.80078 l -27.3222,0 z m -707.52937,3.66797 0.48633,0 c 0.64767,1.79816 1.25556,3.59638 1.82227,5.39453 0.56671,2.08586 1.29501,4.20744 2.18554,6.36524 l 29.38867,71.529291 -67.15625,0 29.26758,-71.746091 c 1.29533,-2.94898 2.62959,-6.79583 4.00586,-11.54297 z m 945.91812,0 0.4863,0 c 0.6477,1.79816 1.2555,3.59638 1.8222,5.39453 0.5667,2.08586 1.295,4.20744 2.1856,6.36524 l 29.3887,71.529291 -67.1563,0 29.2675,-71.746091 c 1.2953,-2.94898 2.6294,-6.79583 4.006,-11.54297 z M 16,88 c -8.83656,0 -16,7.16344 -16,16 0,8.83656 7.16344,16 16,16 8.83656,0 16,-7.16344 16,-16 0,-8.83656 -7.16344,-16 -16,-16 z m 1344.0001,0 c -8.8366,0 -16,7.16344 -16,16 0,8.83656 7.1634,16 16,16 8.8366,0 16,-7.16344 16,-16 0,-8.83656 -7.1634,-16 -16,-16 z"
    />
</svg>
